<svg width="97" height="33" viewBox="0 0 97 33" fill="none" xmlns="http://www.w3.org/2000/svg">
<path d="M19.5974 7.0954C18.6311 6.47972 17.5236 6.17255 16.2751 6.17255C15.5197 6.17255 14.7854 6.32679 14.0735 6.63397C13.3616 6.94115 12.7591 7.33666 12.2673 7.8205C12.1961 7.89037 12.1302 7.96024 12.0669 8.03011C11.9707 8.13822 11.7927 8.06967 11.7927 7.92465V7.89828C11.7927 7.07562 11.1256 6.40985 10.3043 6.40985C9.61216 6.40985 9.05054 6.97147 9.05054 7.66361V25.6157C9.05054 26.35 8.81851 27.0738 8.35049 27.6394C7.77173 28.3381 6.89766 28.785 5.92207 28.785C4.18315 28.785 2.76855 27.3704 2.76855 25.6315H0C0 28.8971 2.65649 31.5536 5.92207 31.5536C5.9959 31.5536 6.06973 31.5523 6.14356 31.5496C8.56538 31.46 10.6523 29.8252 11.4473 27.5352C11.6807 26.8629 11.7624 26.3698 11.7875 26.0534H11.7888V26.0508L11.7927 25.9769V25.973C11.798 25.8702 11.798 25.7911 11.7967 25.7357C11.7954 25.6803 11.7927 25.6263 11.7927 25.5709V18.867C11.7927 18.7181 11.972 18.6416 12.0801 18.7457L12.0828 18.7484C12.6101 19.2586 13.2521 19.6752 14.0076 20.0008C14.763 20.3265 15.5461 20.4886 16.3543 20.4886C17.5671 20.4886 18.6561 20.1762 19.6238 19.5526C20.5901 18.929 21.3508 18.076 21.9045 16.995C22.4583 15.9139 22.7351 14.6878 22.7351 13.3167C22.7351 11.9456 22.4543 10.6972 21.8914 9.62533C21.3284 8.5535 20.5638 7.70976 19.5974 7.09408V7.0954ZM19.571 15.7175C19.2019 16.4202 18.7009 16.9739 18.0681 17.3786C17.4353 17.7833 16.7142 17.985 15.906 17.985C15.0979 17.985 14.3503 17.7833 13.7175 17.3786C13.0847 16.9739 12.5837 16.4202 12.2146 15.7175C11.8455 15.0148 11.6609 14.2145 11.6609 13.3181C11.6609 12.4216 11.8455 11.6213 12.2146 10.9186C12.5837 10.216 13.0847 9.6662 13.7175 9.27069C14.3503 8.87518 15.0794 8.67743 15.906 8.67743C16.7326 8.67743 17.4617 8.87914 18.0945 9.28388C18.7273 9.68861 19.2243 10.237 19.5842 10.9318C19.9441 11.6266 20.1248 12.4216 20.1248 13.3181C20.1248 14.2145 19.9402 15.0148 19.571 15.7175V15.7175Z" fill="white"/>
<path d="M2.76984 25.6315C1.87863 25.0053 0.00128174 23.4575 0.00128174 22.3277V25.6315" fill="white"/>
<path d="M27.0936 9.33391V8.63123C26.88 8.95554 26.7205 9.29436 26.619 9.65032L27.0936 9.33391V9.33391Z" fill="white"/>
<path d="M35.8475 8.70112C35.4955 7.85737 34.9681 7.22851 34.2654 6.81586C33.5628 6.40322 32.6834 6.19623 31.6287 6.19623C30.8904 6.19623 30.1693 6.35839 29.4666 6.68403C28.7639 7.00966 28.1575 7.43154 27.6473 7.94965C27.4324 8.1685 27.2491 8.39526 27.0936 8.63124V9.33393L26.619 9.65034C26.7205 9.29438 26.88 8.95556 27.0936 8.63124V2.22138C27.0936 1.47387 26.5082 0.831832 25.7607 0.81733C25.0132 0.802828 24.3777 1.41587 24.3777 2.17392V18.958C24.3777 19.7147 24.9921 20.3291 25.7488 20.3291C25.9769 20.3291 25.5208 20.3291 25.7488 20.3291C26.4911 20.3291 27.0936 19.7266 27.0936 18.9843V11.9443C27.0936 11.4868 27.1859 11.061 27.3704 10.6655C27.555 10.27 27.8094 9.92324 28.1351 9.62397C28.4607 9.3247 28.843 9.09267 29.282 8.92524C29.7211 8.75781 30.2049 8.67475 30.7322 8.67475C31.3822 8.63916 31.928 8.74067 32.367 8.97797C32.806 9.21528 33.1317 9.59365 33.3426 10.1118C33.5535 10.6299 33.659 11.2851 33.659 12.0761V18.9988C33.659 19.7331 34.2549 20.3291 34.9892 20.3291C35.7539 20.3291 36.3748 19.7081 36.3748 18.9435V11.8915C36.3748 10.6088 36.1995 9.54487 35.8475 8.70112V8.70112Z" fill="white"/>
<path d="M40.0122 3.42767C39.4321 3.42767 38.9839 3.2787 38.6675 2.97943C38.3511 2.68016 38.1929 2.25829 38.1929 1.71381C38.1929 1.2036 38.355 0.790955 38.6807 0.474549C39.0063 0.158143 39.4493 -6.10352e-05 40.0122 -6.10352e-05C40.5751 -6.10352e-05 41.0405 0.148917 41.3569 0.448184C41.6733 0.747452 41.8315 1.16932 41.8315 1.71381C41.8315 2.22401 41.6694 2.63666 41.3437 2.95307C41.0181 3.26947 40.5751 3.42767 40.0122 3.42767ZM38.6938 19.0094V7.85736C38.6938 7.0993 39.3082 6.48495 40.0663 6.48495C40.8085 6.48495 41.4097 7.08612 41.4097 7.82836V18.9303C41.4097 19.7015 40.7848 20.3264 40.0135 20.3264C39.2845 20.3264 38.6938 19.7358 38.6938 19.0067V19.0094Z" fill="white"/>
<path d="M48.343 20.5927C47.1828 20.5927 46.1373 20.391 45.2053 19.9863C44.7201 19.7753 44.2785 19.513 43.879 19.1979C43.2936 18.7365 43.287 17.8492 43.8526 17.364C44.3154 16.9672 44.997 16.9554 45.4716 17.3377C45.7853 17.5908 46.1136 17.7925 46.4577 17.9428C47.0813 18.2157 47.7892 18.3515 48.5803 18.3515C48.8967 18.3515 49.1907 18.312 49.4636 18.2329C49.7365 18.1537 49.9738 18.0351 50.1755 17.8769C50.3772 17.7187 50.5314 17.5302 50.6369 17.31C50.7424 17.0898 50.7951 16.8486 50.7951 16.5849C50.7951 16.1274 50.6277 15.7583 50.2941 15.4775C50.1188 15.3549 49.8419 15.2178 49.4636 15.0688C49.0852 14.9198 48.5974 14.7656 48.0002 14.6074C46.9811 14.3437 46.1452 14.0444 45.4953 13.7109C44.8453 13.3773 44.3444 12.999 43.9924 12.5771C43.7287 12.2435 43.5349 11.8784 43.4123 11.4828C43.2897 11.0873 43.2277 10.6523 43.2277 10.1777C43.2277 9.5976 43.3556 9.0663 43.61 8.58246C43.8645 8.09862 44.2165 7.67675 44.6647 7.31683C45.113 6.95692 45.6403 6.68007 46.2468 6.48627C46.8532 6.29247 47.4992 6.19623 48.1848 6.19623C48.8347 6.19623 49.4807 6.28456 50.1227 6.4599C50.7648 6.63524 51.358 6.89101 51.9025 7.22455C52.0225 7.29838 52.1385 7.37484 52.2493 7.45394C52.8597 7.889 52.9612 8.75517 52.4576 9.3102C52.0686 9.73866 51.4174 9.80854 50.9507 9.46708C50.8439 9.3893 50.7358 9.31415 50.6237 9.24296C50.2282 8.98852 49.8287 8.79076 49.424 8.6497C49.0193 8.50863 48.6501 8.43876 48.3166 8.43876C47.9474 8.43876 47.6139 8.47436 47.3146 8.54423C47.0154 8.6141 46.7649 8.71957 46.5632 8.86064C46.3601 9.0017 46.2072 9.17704 46.1017 9.38798C45.9963 9.59892 45.9435 9.83622 45.9435 10.0999C45.9607 10.328 46.0187 10.5442 46.1149 10.7459C46.2112 10.9476 46.3483 11.119 46.5236 11.26C46.7174 11.4011 47.0075 11.5501 47.3937 11.7083C47.78 11.8665 48.2731 12.0155 48.8703 12.1565C49.7496 12.3846 50.4747 12.6351 51.0456 12.908C51.6164 13.1809 52.07 13.492 52.4035 13.844C52.7555 14.1776 53.0007 14.5652 53.1418 15.0042C53.2828 15.4432 53.3527 15.9363 53.3527 16.4808C53.3527 17.2718 53.1286 17.9797 52.6804 18.6033C52.2321 19.2269 51.6296 19.7147 50.8742 20.0667C50.1188 20.4187 49.275 20.594 48.343 20.594V20.5927Z" fill="white"/>
<path d="M75.6144 20.5927C74.1906 20.5927 72.9289 20.2895 71.8308 19.683C70.7326 19.0766 69.8704 18.246 69.2468 17.1913C68.6232 16.1367 68.3107 14.9238 68.3107 13.5527C68.3107 12.4624 68.4861 11.4697 68.8381 10.5732C69.1901 9.6767 69.6779 8.89886 70.3015 8.23968C70.925 7.5805 71.6726 7.0703 72.5427 6.71039C73.4128 6.35048 74.358 6.16986 75.3771 6.16986C76.2736 6.16986 77.1081 6.34125 77.882 6.68402C78.6559 7.02679 79.3283 7.49745 79.8991 8.09467C80.47 8.69188 80.9103 9.39984 81.2175 10.2172C81.5246 11.0346 81.6697 11.9271 81.6525 12.8935C81.638 13.5382 81.1107 14.0536 80.466 14.0536H70.3146L69.7082 11.8915H79.2795L78.884 12.3398V11.707C78.8312 11.1269 78.6374 10.6088 78.3039 10.1513C77.9703 9.69383 77.5485 9.33392 77.0383 9.07025C76.5281 8.80658 75.9744 8.67474 75.3771 8.67474C74.4279 8.67474 73.6277 8.85536 72.9777 9.21527C72.3278 9.57518 71.8347 10.1025 71.5012 10.7973C71.1676 11.4921 71.0002 12.349 71.0002 13.3681C71.0002 14.3345 71.2019 15.1743 71.6066 15.8862C72.0114 16.5981 72.5822 17.1478 73.3205 17.5341C74.0588 17.9204 74.9118 18.1142 75.8781 18.1142C76.5637 18.1142 77.2004 17.9995 77.7897 17.7714C78.1061 17.6488 78.4357 17.4735 78.7798 17.2441C79.319 16.8855 80.0468 17.016 80.4225 17.5447C80.818 18.0997 80.6664 18.8709 80.0929 19.2388C79.9149 19.3535 79.7264 19.4616 79.53 19.5644C78.9235 19.8808 78.2815 20.1313 77.6052 20.3159C76.9288 20.5004 76.2644 20.5927 75.6144 20.5927V20.5927Z" fill="white"/>
<path d="M89.4783 20.5927C88.2127 20.5927 87.0829 20.2802 86.0901 19.6566C85.0974 19.0331 84.3104 18.1801 83.7303 17.099C83.1502 16.018 82.8602 14.7827 82.8602 13.3944C82.8602 12.0062 83.1463 10.7709 83.7171 9.68985C84.288 8.60879 85.0658 7.75582 86.0506 7.13223C87.0354 6.50865 88.1507 6.1962 89.3992 6.1962C90.0848 6.1962 90.7479 6.30562 91.39 6.52579C92.032 6.74595 92.6068 7.0439 93.117 7.42227C93.6272 7.80064 94.0267 8.21329 94.3167 8.66153C94.6068 9.10977 94.7518 9.56197 94.7518 10.0194L93.9608 10.0722V2.19498C93.9608 1.43429 94.5777 0.817291 95.3384 0.817291C96.078 0.817291 96.6766 1.41583 96.6766 2.15543V18.9513C96.6766 19.712 96.0596 20.329 95.2989 20.329C94.5593 20.329 93.9608 19.7305 93.9608 18.9909V17.0331H94.4881C94.4881 17.455 94.347 17.8729 94.0662 18.2856C93.7854 18.6982 93.411 19.0805 92.9456 19.4325C92.4802 19.7845 91.9437 20.0653 91.3372 20.2763C90.7308 20.4872 90.1111 20.5927 89.4783 20.5927V20.5927ZM89.8475 18.246C90.6741 18.246 91.4031 18.0351 92.036 17.6132C92.6688 17.1913 93.1658 16.6152 93.5257 15.8861C93.8856 15.1571 94.0662 14.3265 94.0662 13.3944C94.0662 12.4624 93.8856 11.6318 93.5257 10.9027C93.1658 10.1737 92.6688 9.59756 92.036 9.17569C91.4031 8.75381 90.6741 8.54288 89.8475 8.54288C89.0209 8.54288 88.2918 8.75381 87.659 9.17569C87.0262 9.59756 86.5292 10.1737 86.1693 10.9027C85.8093 11.6318 85.6287 12.4624 85.6287 13.3944C85.6287 14.3265 85.8093 15.1571 86.1693 15.8861C86.5292 16.6152 87.0262 17.1913 87.659 17.6132C88.2918 18.0351 89.0209 18.246 89.8475 18.246Z" fill="white"/>
<path d="M66.4294 9.16917C66.0774 8.32542 65.5501 7.69656 64.8474 7.28391C64.1447 6.87127 63.2654 6.66429 62.2107 6.66429C61.4724 6.66429 60.7513 6.82644 60.0486 7.15208C59.3459 7.47771 58.7395 7.89959 58.2293 8.4177C58.0144 8.63655 57.8311 8.86331 57.6755 9.0993V2.68943C57.6755 1.94192 57.0915 1.29988 56.3427 1.28538C55.5807 1.27088 54.9597 1.88391 54.9597 2.64197V19.426C54.9597 20.1827 55.5741 20.7971 56.3308 20.7971C57.0731 20.7971 57.6755 20.1946 57.6755 19.4524V12.4123C57.6755 11.9549 57.7678 11.529 57.9524 11.1335C58.137 10.738 58.3914 10.3913 58.717 10.092C59.0427 9.79275 59.425 9.56072 59.864 9.39329C60.303 9.22586 60.7869 9.1428 61.3142 9.1428C61.9642 9.1072 62.51 9.20872 62.949 9.44603C63.388 9.68333 63.7136 10.0617 63.9246 10.5798C64.1355 11.0979 64.241 11.7532 64.241 12.5442V19.4669C64.241 20.2012 64.8369 20.7971 65.5712 20.7971C66.3055 20.7971 66.9568 20.1762 66.9568 19.4115V12.3596C66.9568 11.0768 66.7814 10.0129 66.4294 9.16917V9.16917Z" fill="white"/>
<path d="M15.8072 29.4442C21.9639 29.4442 21.9639 31.5536 28.1194 31.5536C34.2748 31.5536 34.2761 29.4442 40.4315 29.4442C46.5869 29.4442 46.5882 31.5536 52.7437 31.5536C58.8991 31.5536 58.9004 29.4442 65.0558 29.4442C71.2112 29.4442 71.2126 31.5536 77.3693 31.5536C83.526 31.5536 83.526 29.4442 89.6828 29.4442" stroke="#D0EBFF" stroke-width="2.10937" stroke-linecap="round" stroke-linejoin="round"/>
<path d="M15.8072 24.002C21.9639 24.002 21.9639 26.1114 28.1194 26.1114C34.2748 26.1114 34.2761 24.002 40.4315 24.002C46.5869 24.002 46.5882 26.1114 52.7437 26.1114C58.8991 26.1114 58.9004 24.002 65.0558 24.002C71.2112 24.002 71.2126 26.1114 77.3693 26.1114C83.526 26.1114 83.526 24.002 89.6828 24.002" stroke="#D0EBFF" stroke-width="2.10937" stroke-linecap="round" stroke-linejoin="round"/>
</svg>
